<?xml version="1.0" encoding="utf-8"?><svg xmlns="http://www.w3.org/2000/svg" xmlns:xlink="http://www.w3.org/1999/xlink" width="1366" height="657" preserveAspectRatio="xMidYMid" viewBox="0 0 1366 657" style="z-index:1;margin-right:-2px;display:block;background-repeat-y:initial;background-repeat-x:initial;background-color:rgb(122, 206, 255);animation-play-state:paused" ><g transform="translate(683,328.5) scale(1,1) translate(-683,-328.5)" style="transform:matrix(1, 0, 0, 1, 0, 0);animation-play-state:paused" ><g transform="matrix(1,0,0,1,863.9488525390625,386.6612854003906)" style="transform:matrix(1, 0, 0, 1, 863.949, 386.661);animation-play-state:paused" ><path d="M84.717,33.597c0.791-2.503,1.186-5.138,1.186-7.773C85.903,11.594,74.308,0,60.079,0 c-9.881,0-18.445,5.534-22.793,13.702c-1.581-0.527-3.426-0.791-5.138-0.791c-9.486,0-17.128,7.642-17.128,17.128 c0,1.186,0.132,2.372,0.395,3.426C6.719,34.783,0,42.424,0,51.515C0,61.66,8.169,69.829,18.314,69.829h63.373 C91.831,69.829,100,61.66,100,51.515C99.868,42.556,93.281,35.046,84.717,33.597z" fill="#bddeff" transform="scale(0.55)" style="transform:matrix(0.55, 0, 0, 0.55, 0, 0);animation-play-state:paused" ></path></g>
<g transform="matrix(1,0,0,1,1029.1387939453125,553.2852783203125)" style="transform:matrix(1, 0, 0, 1, 1029.14, 553.285);animation-play-state:paused" ><path d="M84.717,33.597c0.791-2.503,1.186-5.138,1.186-7.773C85.903,11.594,74.308,0,60.079,0 c-9.881,0-18.445,5.534-22.793,13.702c-1.581-0.527-3.426-0.791-5.138-0.791c-9.486,0-17.128,7.642-17.128,17.128 c0,1.186,0.132,2.372,0.395,3.426C6.719,34.783,0,42.424,0,51.515C0,61.66,8.169,69.829,18.314,69.829h63.373 C91.831,69.829,100,61.66,100,51.515C99.868,42.556,93.281,35.046,84.717,33.597z" fill="#bddeff" transform="scale(0.55)" style="transform:matrix(0.55, 0, 0, 0.55, 0, 0);animation-play-state:paused" ></path></g>
<g transform="matrix(1,0,0,1,42.76988220214844,440.3379211425781)" style="transform:matrix(1, 0, 0, 1, 42.7699, 440.338);animation-play-state:paused" ><path d="M84.717,33.597c0.791-2.503,1.186-5.138,1.186-7.773C85.903,11.594,74.308,0,60.079,0 c-9.881,0-18.445,5.534-22.793,13.702c-1.581-0.527-3.426-0.791-5.138-0.791c-9.486,0-17.128,7.642-17.128,17.128 c0,1.186,0.132,2.372,0.395,3.426C6.719,34.783,0,42.424,0,51.515C0,61.66,8.169,69.829,18.314,69.829h63.373 C91.831,69.829,100,61.66,100,51.515C99.868,42.556,93.281,35.046,84.717,33.597z" fill="#bddeff" transform="scale(0.55)" style="transform:matrix(0.55, 0, 0, 0.55, 0, 0);animation-play-state:paused" ></path></g>
<g transform="matrix(1,0,0,1,277.4703369140625,562.1550903320312)" style="transform:matrix(1, 0, 0, 1, 277.47, 562.155);animation-play-state:paused" ><path d="M84.717,33.597c0.791-2.503,1.186-5.138,1.186-7.773C85.903,11.594,74.308,0,60.079,0 c-9.881,0-18.445,5.534-22.793,13.702c-1.581-0.527-3.426-0.791-5.138-0.791c-9.486,0-17.128,7.642-17.128,17.128 c0,1.186,0.132,2.372,0.395,3.426C6.719,34.783,0,42.424,0,51.515C0,61.66,8.169,69.829,18.314,69.829h63.373 C91.831,69.829,100,61.66,100,51.515C99.868,42.556,93.281,35.046,84.717,33.597z" fill="#bddeff" transform="scale(0.55)" style="transform:matrix(0.55, 0, 0, 0.55, 0, 0);animation-play-state:paused" ></path></g>
<g transform="matrix(1,0,0,1,398.69970703125,299.12713623046875)" style="transform:matrix(1, 0, 0, 1, 398.7, 299.127);animation-play-state:paused" ><path d="M84.717,33.597c0.791-2.503,1.186-5.138,1.186-7.773C85.903,11.594,74.308,0,60.079,0 c-9.881,0-18.445,5.534-22.793,13.702c-1.581-0.527-3.426-0.791-5.138-0.791c-9.486,0-17.128,7.642-17.128,17.128 c0,1.186,0.132,2.372,0.395,3.426C6.719,34.783,0,42.424,0,51.515C0,61.66,8.169,69.829,18.314,69.829h63.373 C91.831,69.829,100,61.66,100,51.515C99.868,42.556,93.281,35.046,84.717,33.597z" fill="#bddeff" transform="scale(0.55)" style="transform:matrix(0.55, 0, 0, 0.55, 0, 0);animation-play-state:paused" ></path></g>
<g transform="matrix(1,0,0,1,947.495849609375,116.90138244628906)" style="transform:matrix(1, 0, 0, 1, 947.496, 116.901);animation-play-state:paused" ><path d="M84.717,33.597c0.791-2.503,1.186-5.138,1.186-7.773C85.903,11.594,74.308,0,60.079,0 c-9.881,0-18.445,5.534-22.793,13.702c-1.581-0.527-3.426-0.791-5.138-0.791c-9.486,0-17.128,7.642-17.128,17.128 c0,1.186,0.132,2.372,0.395,3.426C6.719,34.783,0,42.424,0,51.515C0,61.66,8.169,69.829,18.314,69.829h63.373 C91.831,69.829,100,61.66,100,51.515C99.868,42.556,93.281,35.046,84.717,33.597z" fill="#bddeff" transform="scale(0.55)" style="transform:matrix(0.55, 0, 0, 0.55, 0, 0);animation-play-state:paused" ></path></g>
<g transform="matrix(1,0,0,1,744.4554443359375,158.59275817871094)" style="transform:matrix(1, 0, 0, 1, 744.455, 158.593);animation-play-state:paused" ><path d="M84.717,33.597c0.791-2.503,1.186-5.138,1.186-7.773C85.903,11.594,74.308,0,60.079,0 c-9.881,0-18.445,5.534-22.793,13.702c-1.581-0.527-3.426-0.791-5.138-0.791c-9.486,0-17.128,7.642-17.128,17.128 c0,1.186,0.132,2.372,0.395,3.426C6.719,34.783,0,42.424,0,51.515C0,61.66,8.169,69.829,18.314,69.829h63.373 C91.831,69.829,100,61.66,100,51.515C99.868,42.556,93.281,35.046,84.717,33.597z" fill="#bddeff" transform="scale(0.55)" style="transform:matrix(0.55, 0, 0, 0.55, 0, 0);animation-play-state:paused" ></path></g>
<g transform="matrix(1,0,0,1,1043.5299072265625,202.20347595214844)" style="transform:matrix(1, 0, 0, 1, 1043.53, 202.203);animation-play-state:paused" ><path d="M84.717,33.597c0.791-2.503,1.186-5.138,1.186-7.773C85.903,11.594,74.308,0,60.079,0 c-9.881,0-18.445,5.534-22.793,13.702c-1.581-0.527-3.426-0.791-5.138-0.791c-9.486,0-17.128,7.642-17.128,17.128 c0,1.186,0.132,2.372,0.395,3.426C6.719,34.783,0,42.424,0,51.515C0,61.66,8.169,69.829,18.314,69.829h63.373 C91.831,69.829,100,61.66,100,51.515C99.868,42.556,93.281,35.046,84.717,33.597z" fill="#bddeff" transform="scale(0.55)" style="transform:matrix(0.55, 0, 0, 0.55, 0, 0);animation-play-state:paused" ></path></g>
<g transform="matrix(1,0,0,1,162.62808227539062,112.47985076904297)" style="transform:matrix(1, 0, 0, 1, 162.628, 112.48);animation-play-state:paused" ><path d="M84.717,33.597c0.791-2.503,1.186-5.138,1.186-7.773C85.903,11.594,74.308,0,60.079,0 c-9.881,0-18.445,5.534-22.793,13.702c-1.581-0.527-3.426-0.791-5.138-0.791c-9.486,0-17.128,7.642-17.128,17.128 c0,1.186,0.132,2.372,0.395,3.426C6.719,34.783,0,42.424,0,51.515C0,61.66,8.169,69.829,18.314,69.829h63.373 C91.831,69.829,100,61.66,100,51.515C99.868,42.556,93.281,35.046,84.717,33.597z" fill="#bddeff" transform="scale(0.55)" style="transform:matrix(0.55, 0, 0, 0.55, 0, 0);animation-play-state:paused" ></path></g>
<g transform="matrix(1,0,0,1,600.1405029296875,326.06298828125)" style="transform:matrix(1, 0, 0, 1, 600.141, 326.063);animation-play-state:paused" ><path d="M84.717,33.597c0.791-2.503,1.186-5.138,1.186-7.773C85.903,11.594,74.308,0,60.079,0 c-9.881,0-18.445,5.534-22.793,13.702c-1.581-0.527-3.426-0.791-5.138-0.791c-9.486,0-17.128,7.642-17.128,17.128 c0,1.186,0.132,2.372,0.395,3.426C6.719,34.783,0,42.424,0,51.515C0,61.66,8.169,69.829,18.314,69.829h63.373 C91.831,69.829,100,61.66,100,51.515C99.868,42.556,93.281,35.046,84.717,33.597z" fill="#bddeff" transform="scale(0.55)" style="transform:matrix(0.55, 0, 0, 0.55, 0, 0);animation-play-state:paused" ></path></g>
<g transform="matrix(1,0,0,1,1333.7825927734375,391.7522277832031)" style="transform:matrix(1, 0, 0, 1, 1333.78, 391.752);animation-play-state:paused" ><path d="M84.717,33.597c0.791-2.503,1.186-5.138,1.186-7.773C85.903,11.594,74.308,0,60.079,0 c-9.881,0-18.445,5.534-22.793,13.702c-1.581-0.527-3.426-0.791-5.138-0.791c-9.486,0-17.128,7.642-17.128,17.128 c0,1.186,0.132,2.372,0.395,3.426C6.719,34.783,0,42.424,0,51.515C0,61.66,8.169,69.829,18.314,69.829h63.373 C91.831,69.829,100,61.66,100,51.515C99.868,42.556,93.281,35.046,84.717,33.597z" fill="#bddeff" transform="scale(0.55)" style="transform:matrix(0.55, 0, 0, 0.55, 0, 0);animation-play-state:paused" ></path></g>
<g transform="matrix(1,0,0,1,895.66552734375,344.3868103027344)" style="transform:matrix(1, 0, 0, 1, 895.666, 344.387);animation-play-state:paused" ><path d="M84.717,33.597c0.791-2.503,1.186-5.138,1.186-7.773C85.903,11.594,74.308,0,60.079,0 c-9.881,0-18.445,5.534-22.793,13.702c-1.581-0.527-3.426-0.791-5.138-0.791c-9.486,0-17.128,7.642-17.128,17.128 c0,1.186,0.132,2.372,0.395,3.426C6.719,34.783,0,42.424,0,51.515C0,61.66,8.169,69.829,18.314,69.829h63.373 C91.831,69.829,100,61.66,100,51.515C99.868,42.556,93.281,35.046,84.717,33.597z" fill="#ffffff" transform="scale(0.7)" style="transform:matrix(0.7, 0, 0, 0.7, 0, 0);animation-play-state:paused" ></path></g>
<g transform="matrix(1,0,0,1,423.93878173828125,92.26537322998047)" style="transform:matrix(1, 0, 0, 1, 423.939, 92.2654);animation-play-state:paused" ><path d="M84.717,33.597c0.791-2.503,1.186-5.138,1.186-7.773C85.903,11.594,74.308,0,60.079,0 c-9.881,0-18.445,5.534-22.793,13.702c-1.581-0.527-3.426-0.791-5.138-0.791c-9.486,0-17.128,7.642-17.128,17.128 c0,1.186,0.132,2.372,0.395,3.426C6.719,34.783,0,42.424,0,51.515C0,61.66,8.169,69.829,18.314,69.829h63.373 C91.831,69.829,100,61.66,100,51.515C99.868,42.556,93.281,35.046,84.717,33.597z" fill="#ffffff" transform="scale(0.7)" style="transform:matrix(0.7, 0, 0, 0.7, 0, 0);animation-play-state:paused" ></path></g>
<g transform="matrix(1,0,0,1,943.1754150390625,623.6224365234375)" style="transform:matrix(1, 0, 0, 1, 943.175, 623.622);animation-play-state:paused" ><path d="M84.717,33.597c0.791-2.503,1.186-5.138,1.186-7.773C85.903,11.594,74.308,0,60.079,0 c-9.881,0-18.445,5.534-22.793,13.702c-1.581-0.527-3.426-0.791-5.138-0.791c-9.486,0-17.128,7.642-17.128,17.128 c0,1.186,0.132,2.372,0.395,3.426C6.719,34.783,0,42.424,0,51.515C0,61.66,8.169,69.829,18.314,69.829h63.373 C91.831,69.829,100,61.66,100,51.515C99.868,42.556,93.281,35.046,84.717,33.597z" fill="#ffffff" transform="scale(0.7)" style="transform:matrix(0.7, 0, 0, 0.7, 0, 0);animation-play-state:paused" ></path></g>
<g transform="matrix(1,0,0,1,301.1357727050781,566.97216796875)" style="transform:matrix(1, 0, 0, 1, 301.136, 566.972);animation-play-state:paused" ><path d="M84.717,33.597c0.791-2.503,1.186-5.138,1.186-7.773C85.903,11.594,74.308,0,60.079,0 c-9.881,0-18.445,5.534-22.793,13.702c-1.581-0.527-3.426-0.791-5.138-0.791c-9.486,0-17.128,7.642-17.128,17.128 c0,1.186,0.132,2.372,0.395,3.426C6.719,34.783,0,42.424,0,51.515C0,61.66,8.169,69.829,18.314,69.829h63.373 C91.831,69.829,100,61.66,100,51.515C99.868,42.556,93.281,35.046,84.717,33.597z" fill="#ffffff" transform="scale(0.7)" style="transform:matrix(0.7, 0, 0, 0.7, 0, 0);animation-play-state:paused" ></path></g>
<g transform="matrix(1,0,0,1,12.588401794433594,459.5237731933594)" style="transform:matrix(1, 0, 0, 1, 12.5884, 459.524);animation-play-state:paused" ><path d="M84.717,33.597c0.791-2.503,1.186-5.138,1.186-7.773C85.903,11.594,74.308,0,60.079,0 c-9.881,0-18.445,5.534-22.793,13.702c-1.581-0.527-3.426-0.791-5.138-0.791c-9.486,0-17.128,7.642-17.128,17.128 c0,1.186,0.132,2.372,0.395,3.426C6.719,34.783,0,42.424,0,51.515C0,61.66,8.169,69.829,18.314,69.829h63.373 C91.831,69.829,100,61.66,100,51.515C99.868,42.556,93.281,35.046,84.717,33.597z" fill="#ffffff" transform="scale(0.7)" style="transform:matrix(0.7, 0, 0, 0.7, 0, 0);animation-play-state:paused" ></path></g>
<g transform="matrix(1,0,0,1,1284.7694091796875,79.03755187988281)" style="transform:matrix(1, 0, 0, 1, 1284.77, 79.0376);animation-play-state:paused" ><path d="M84.717,33.597c0.791-2.503,1.186-5.138,1.186-7.773C85.903,11.594,74.308,0,60.079,0 c-9.881,0-18.445,5.534-22.793,13.702c-1.581-0.527-3.426-0.791-5.138-0.791c-9.486,0-17.128,7.642-17.128,17.128 c0,1.186,0.132,2.372,0.395,3.426C6.719,34.783,0,42.424,0,51.515C0,61.66,8.169,69.829,18.314,69.829h63.373 C91.831,69.829,100,61.66,100,51.515C99.868,42.556,93.281,35.046,84.717,33.597z" fill="#ffffff" transform="scale(0.7)" style="transform:matrix(0.7, 0, 0, 0.7, 0, 0);animation-play-state:paused" ></path></g>
<g transform="matrix(1,0,0,1,1127.38818359375,223.43844604492188)" style="transform:matrix(1, 0, 0, 1, 1127.39, 223.438);animation-play-state:paused" ><path d="M84.717,33.597c0.791-2.503,1.186-5.138,1.186-7.773C85.903,11.594,74.308,0,60.079,0 c-9.881,0-18.445,5.534-22.793,13.702c-1.581-0.527-3.426-0.791-5.138-0.791c-9.486,0-17.128,7.642-17.128,17.128 c0,1.186,0.132,2.372,0.395,3.426C6.719,34.783,0,42.424,0,51.515C0,61.66,8.169,69.829,18.314,69.829h63.373 C91.831,69.829,100,61.66,100,51.515C99.868,42.556,93.281,35.046,84.717,33.597z" fill="#ffffff" transform="scale(0.7)" style="transform:matrix(0.7, 0, 0, 0.7, 0, 0);animation-play-state:paused" ></path></g>
<g transform="matrix(1,0,0,1,537.9443359375,441.3746032714844)" style="transform:matrix(1, 0, 0, 1, 537.944, 441.375);animation-play-state:paused" ><path d="M84.717,33.597c0.791-2.503,1.186-5.138,1.186-7.773C85.903,11.594,74.308,0,60.079,0 c-9.881,0-18.445,5.534-22.793,13.702c-1.581-0.527-3.426-0.791-5.138-0.791c-9.486,0-17.128,7.642-17.128,17.128 c0,1.186,0.132,2.372,0.395,3.426C6.719,34.783,0,42.424,0,51.515C0,61.66,8.169,69.829,18.314,69.829h63.373 C91.831,69.829,100,61.66,100,51.515C99.868,42.556,93.281,35.046,84.717,33.597z" fill="#ffffff" transform="scale(0.7)" style="transform:matrix(0.7, 0, 0, 0.7, 0, 0);animation-play-state:paused" ></path></g>
<g transform="matrix(1,0,0,1,-17.429885864257812,615.9181518554688)" style="transform:matrix(1, 0, 0, 1, -17.4299, 615.918);animation-play-state:paused" ><path d="M84.717,33.597c0.791-2.503,1.186-5.138,1.186-7.773C85.903,11.594,74.308,0,60.079,0 c-9.881,0-18.445,5.534-22.793,13.702c-1.581-0.527-3.426-0.791-5.138-0.791c-9.486,0-17.128,7.642-17.128,17.128 c0,1.186,0.132,2.372,0.395,3.426C6.719,34.783,0,42.424,0,51.515C0,61.66,8.169,69.829,18.314,69.829h63.373 C91.831,69.829,100,61.66,100,51.515C99.868,42.556,93.281,35.046,84.717,33.597z" fill="#ffffff" transform="scale(0.7)" style="transform:matrix(0.7, 0, 0, 0.7, 0, 0);animation-play-state:paused" ></path></g>
<g transform="matrix(1,0,0,1,1068.3011474609375,482.4378967285156)" style="transform:matrix(1, 0, 0, 1, 1068.3, 482.438);animation-play-state:paused" ><path d="M84.717,33.597c0.791-2.503,1.186-5.138,1.186-7.773C85.903,11.594,74.308,0,60.079,0 c-9.881,0-18.445,5.534-22.793,13.702c-1.581-0.527-3.426-0.791-5.138-0.791c-9.486,0-17.128,7.642-17.128,17.128 c0,1.186,0.132,2.372,0.395,3.426C6.719,34.783,0,42.424,0,51.515C0,61.66,8.169,69.829,18.314,69.829h63.373 C91.831,69.829,100,61.66,100,51.515C99.868,42.556,93.281,35.046,84.717,33.597z" fill="#ffffff" transform="scale(0.7)" style="transform:matrix(0.7, 0, 0, 0.7, 0, 0);animation-play-state:paused" ></path></g>
<g transform="matrix(1,0,0,1,545.2999267578125,483.6040954589844)" style="transform:matrix(1, 0, 0, 1, 545.3, 483.604);animation-play-state:paused" ><path d="M84.717,33.597c0.791-2.503,1.186-5.138,1.186-7.773C85.903,11.594,74.308,0,60.079,0 c-9.881,0-18.445,5.534-22.793,13.702c-1.581-0.527-3.426-0.791-5.138-0.791c-9.486,0-17.128,7.642-17.128,17.128 c0,1.186,0.132,2.372,0.395,3.426C6.719,34.783,0,42.424,0,51.515C0,61.66,8.169,69.829,18.314,69.829h63.373 C91.831,69.829,100,61.66,100,51.515C99.868,42.556,93.281,35.046,84.717,33.597z" fill="#ffffff" transform="scale(0.7)" style="transform:matrix(0.7, 0, 0, 0.7, 0, 0);animation-play-state:paused" ></path></g>
<g transform="matrix(1,0,0,1,103.170654296875,516.0009765625)" style="transform:matrix(1, 0, 0, 1, 103.171, 516.001);animation-play-state:paused" ><path d="M84.717,33.597c0.791-2.503,1.186-5.138,1.186-7.773C85.903,11.594,74.308,0,60.079,0 c-9.881,0-18.445,5.534-22.793,13.702c-1.581-0.527-3.426-0.791-5.138-0.791c-9.486,0-17.128,7.642-17.128,17.128 c0,1.186,0.132,2.372,0.395,3.426C6.719,34.783,0,42.424,0,51.515C0,61.66,8.169,69.829,18.314,69.829h63.373 C91.831,69.829,100,61.66,100,51.515C99.868,42.556,93.281,35.046,84.717,33.597z" fill="#f1f2f3" transform="scale(0.85)" style="transform:matrix(0.85, 0, 0, 0.85, 0, 0);animation-play-state:paused" ></path></g>
<g transform="matrix(1,0,0,1,1306.749755859375,566.6487426757812)" style="transform:matrix(1, 0, 0, 1, 1306.75, 566.649);animation-play-state:paused" ><path d="M84.717,33.597c0.791-2.503,1.186-5.138,1.186-7.773C85.903,11.594,74.308,0,60.079,0 c-9.881,0-18.445,5.534-22.793,13.702c-1.581-0.527-3.426-0.791-5.138-0.791c-9.486,0-17.128,7.642-17.128,17.128 c0,1.186,0.132,2.372,0.395,3.426C6.719,34.783,0,42.424,0,51.515C0,61.66,8.169,69.829,18.314,69.829h63.373 C91.831,69.829,100,61.66,100,51.515C99.868,42.556,93.281,35.046,84.717,33.597z" fill="#f1f2f3" transform="scale(0.85)" style="transform:matrix(0.85, 0, 0, 0.85, 0, 0);animation-play-state:paused" ></path></g>
<g transform="matrix(1,0,0,1,272.48126220703125,263.49774169921875)" style="transform:matrix(1, 0, 0, 1, 272.481, 263.498);animation-play-state:paused" ><path d="M84.717,33.597c0.791-2.503,1.186-5.138,1.186-7.773C85.903,11.594,74.308,0,60.079,0 c-9.881,0-18.445,5.534-22.793,13.702c-1.581-0.527-3.426-0.791-5.138-0.791c-9.486,0-17.128,7.642-17.128,17.128 c0,1.186,0.132,2.372,0.395,3.426C6.719,34.783,0,42.424,0,51.515C0,61.66,8.169,69.829,18.314,69.829h63.373 C91.831,69.829,100,61.66,100,51.515C99.868,42.556,93.281,35.046,84.717,33.597z" fill="#f1f2f3" transform="scale(0.85)" style="transform:matrix(0.85, 0, 0, 0.85, 0, 0);animation-play-state:paused" ></path></g>
<g transform="matrix(1,0,0,1,968.3480224609375,440.3294982910156)" style="transform:matrix(1, 0, 0, 1, 968.348, 440.329);animation-play-state:paused" ><path d="M84.717,33.597c0.791-2.503,1.186-5.138,1.186-7.773C85.903,11.594,74.308,0,60.079,0 c-9.881,0-18.445,5.534-22.793,13.702c-1.581-0.527-3.426-0.791-5.138-0.791c-9.486,0-17.128,7.642-17.128,17.128 c0,1.186,0.132,2.372,0.395,3.426C6.719,34.783,0,42.424,0,51.515C0,61.66,8.169,69.829,18.314,69.829h63.373 C91.831,69.829,100,61.66,100,51.515C99.868,42.556,93.281,35.046,84.717,33.597z" fill="#f1f2f3" transform="scale(0.85)" style="transform:matrix(0.85, 0, 0, 0.85, 0, 0);animation-play-state:paused" ></path></g>
<g transform="matrix(1,0,0,1,413.197998046875,576.0671997070312)" style="transform:matrix(1, 0, 0, 1, 413.198, 576.067);animation-play-state:paused" ><path d="M84.717,33.597c0.791-2.503,1.186-5.138,1.186-7.773C85.903,11.594,74.308,0,60.079,0 c-9.881,0-18.445,5.534-22.793,13.702c-1.581-0.527-3.426-0.791-5.138-0.791c-9.486,0-17.128,7.642-17.128,17.128 c0,1.186,0.132,2.372,0.395,3.426C6.719,34.783,0,42.424,0,51.515C0,61.66,8.169,69.829,18.314,69.829h63.373 C91.831,69.829,100,61.66,100,51.515C99.868,42.556,93.281,35.046,84.717,33.597z" fill="#f1f2f3" transform="scale(0.85)" style="transform:matrix(0.85, 0, 0, 0.85, 0, 0);animation-play-state:paused" ></path></g>
<g transform="matrix(1,0,0,1,565.3178100585938,567.2664184570312)" style="transform:matrix(1, 0, 0, 1, 565.318, 567.266);animation-play-state:paused" ><path d="M84.717,33.597c0.791-2.503,1.186-5.138,1.186-7.773C85.903,11.594,74.308,0,60.079,0 c-9.881,0-18.445,5.534-22.793,13.702c-1.581-0.527-3.426-0.791-5.138-0.791c-9.486,0-17.128,7.642-17.128,17.128 c0,1.186,0.132,2.372,0.395,3.426C6.719,34.783,0,42.424,0,51.515C0,61.66,8.169,69.829,18.314,69.829h63.373 C91.831,69.829,100,61.66,100,51.515C99.868,42.556,93.281,35.046,84.717,33.597z" fill="#f1f2f3" transform="scale(0.85)" style="transform:matrix(0.85, 0, 0, 0.85, 0, 0);animation-play-state:paused" ></path></g>
<g transform="matrix(1,0,0,1,813.3814086914062,553.5296630859375)" style="transform:matrix(1, 0, 0, 1, 813.381, 553.53);animation-play-state:paused" ><path d="M84.717,33.597c0.791-2.503,1.186-5.138,1.186-7.773C85.903,11.594,74.308,0,60.079,0 c-9.881,0-18.445,5.534-22.793,13.702c-1.581-0.527-3.426-0.791-5.138-0.791c-9.486,0-17.128,7.642-17.128,17.128 c0,1.186,0.132,2.372,0.395,3.426C6.719,34.783,0,42.424,0,51.515C0,61.66,8.169,69.829,18.314,69.829h63.373 C91.831,69.829,100,61.66,100,51.515C99.868,42.556,93.281,35.046,84.717,33.597z" fill="#f1f2f3" transform="scale(0.85)" style="transform:matrix(0.85, 0, 0, 0.85, 0, 0);animation-play-state:paused" ></path></g>
<g transform="matrix(1,0,0,1,992.1448974609375,277.6425476074219)" style="transform:matrix(1, 0, 0, 1, 992.145, 277.643);animation-play-state:paused" ><path d="M84.717,33.597c0.791-2.503,1.186-5.138,1.186-7.773C85.903,11.594,74.308,0,60.079,0 c-9.881,0-18.445,5.534-22.793,13.702c-1.581-0.527-3.426-0.791-5.138-0.791c-9.486,0-17.128,7.642-17.128,17.128 c0,1.186,0.132,2.372,0.395,3.426C6.719,34.783,0,42.424,0,51.515C0,61.66,8.169,69.829,18.314,69.829h63.373 C91.831,69.829,100,61.66,100,51.515C99.868,42.556,93.281,35.046,84.717,33.597z" fill="#f1f2f3" transform="scale(0.85)" style="transform:matrix(0.85, 0, 0, 0.85, 0, 0);animation-play-state:paused" ></path></g>
<g transform="matrix(1,0,0,1,1086.905517578125,609.7740478515625)" style="transform:matrix(1, 0, 0, 1, 1086.91, 609.774);animation-play-state:paused" ><path d="M84.717,33.597c0.791-2.503,1.186-5.138,1.186-7.773C85.903,11.594,74.308,0,60.079,0 c-9.881,0-18.445,5.534-22.793,13.702c-1.581-0.527-3.426-0.791-5.138-0.791c-9.486,0-17.128,7.642-17.128,17.128 c0,1.186,0.132,2.372,0.395,3.426C6.719,34.783,0,42.424,0,51.515C0,61.66,8.169,69.829,18.314,69.829h63.373 C91.831,69.829,100,61.66,100,51.515C99.868,42.556,93.281,35.046,84.717,33.597z" fill="#f1f2f3" transform="scale(0.85)" style="transform:matrix(0.85, 0, 0, 0.85, 0, 0);animation-play-state:paused" ></path></g>
<g transform="matrix(1,0,0,1,1316.9886474609375,108.9198226928711)" style="transform:matrix(1, 0, 0, 1, 1316.99, 108.92);animation-play-state:paused" ><path d="M84.717,33.597c0.791-2.503,1.186-5.138,1.186-7.773C85.903,11.594,74.308,0,60.079,0 c-9.881,0-18.445,5.534-22.793,13.702c-1.581-0.527-3.426-0.791-5.138-0.791c-9.486,0-17.128,7.642-17.128,17.128 c0,1.186,0.132,2.372,0.395,3.426C6.719,34.783,0,42.424,0,51.515C0,61.66,8.169,69.829,18.314,69.829h63.373 C91.831,69.829,100,61.66,100,51.515C99.868,42.556,93.281,35.046,84.717,33.597z" fill="#f1f2f3" transform="scale(0.85)" style="transform:matrix(0.85, 0, 0, 0.85, 0, 0);animation-play-state:paused" ></path></g>
<g transform="matrix(1,0,0,1,113.32949829101562,431.90625)" style="transform:matrix(1, 0, 0, 1, 113.329, 431.906);animation-play-state:paused" ><path d="M84.717,33.597c0.791-2.503,1.186-5.138,1.186-7.773C85.903,11.594,74.308,0,60.079,0 c-9.881,0-18.445,5.534-22.793,13.702c-1.581-0.527-3.426-0.791-5.138-0.791c-9.486,0-17.128,7.642-17.128,17.128 c0,1.186,0.132,2.372,0.395,3.426C6.719,34.783,0,42.424,0,51.515C0,61.66,8.169,69.829,18.314,69.829h63.373 C91.831,69.829,100,61.66,100,51.515C99.868,42.556,93.281,35.046,84.717,33.597z" fill="#f1f2f3" transform="scale(0.85)" style="transform:matrix(0.85, 0, 0, 0.85, 0, 0);animation-play-state:paused" ></path></g>
<g transform="matrix(1,0,0,1,151.6452178955078,161.65281677246094)" style="transform:matrix(1, 0, 0, 1, 151.645, 161.653);animation-play-state:paused" ><path d="M84.717,33.597c0.791-2.503,1.186-5.138,1.186-7.773C85.903,11.594,74.308,0,60.079,0 c-9.881,0-18.445,5.534-22.793,13.702c-1.581-0.527-3.426-0.791-5.138-0.791c-9.486,0-17.128,7.642-17.128,17.128 c0,1.186,0.132,2.372,0.395,3.426C6.719,34.783,0,42.424,0,51.515C0,61.66,8.169,69.829,18.314,69.829h63.373 C91.831,69.829,100,61.66,100,51.515C99.868,42.556,93.281,35.046,84.717,33.597z" fill="#bddeff" transform="scale(1)" style="transform:matrix(1, 0, 0, 1, 0, 0);animation-play-state:paused" ></path></g>
<g transform="matrix(1,0,0,1,1085.618408203125,270.1376037597656)" style="transform:matrix(1, 0, 0, 1, 1085.62, 270.138);animation-play-state:paused" ><path d="M84.717,33.597c0.791-2.503,1.186-5.138,1.186-7.773C85.903,11.594,74.308,0,60.079,0 c-9.881,0-18.445,5.534-22.793,13.702c-1.581-0.527-3.426-0.791-5.138-0.791c-9.486,0-17.128,7.642-17.128,17.128 c0,1.186,0.132,2.372,0.395,3.426C6.719,34.783,0,42.424,0,51.515C0,61.66,8.169,69.829,18.314,69.829h63.373 C91.831,69.829,100,61.66,100,51.515C99.868,42.556,93.281,35.046,84.717,33.597z" fill="#bddeff" transform="scale(1)" style="transform:matrix(1, 0, 0, 1, 0, 0);animation-play-state:paused" ></path></g>
<g transform="matrix(1,0,0,1,258.966552734375,357.951416015625)" style="transform:matrix(1, 0, 0, 1, 258.967, 357.951);animation-play-state:paused" ><path d="M84.717,33.597c0.791-2.503,1.186-5.138,1.186-7.773C85.903,11.594,74.308,0,60.079,0 c-9.881,0-18.445,5.534-22.793,13.702c-1.581-0.527-3.426-0.791-5.138-0.791c-9.486,0-17.128,7.642-17.128,17.128 c0,1.186,0.132,2.372,0.395,3.426C6.719,34.783,0,42.424,0,51.515C0,61.66,8.169,69.829,18.314,69.829h63.373 C91.831,69.829,100,61.66,100,51.515C99.868,42.556,93.281,35.046,84.717,33.597z" fill="#bddeff" transform="scale(1)" style="transform:matrix(1, 0, 0, 1, 0, 0);animation-play-state:paused" ></path></g>
<g transform="matrix(1,0,0,1,1169.351318359375,458.86492919921875)" style="transform:matrix(1, 0, 0, 1, 1169.35, 458.865);animation-play-state:paused" ><path d="M84.717,33.597c0.791-2.503,1.186-5.138,1.186-7.773C85.903,11.594,74.308,0,60.079,0 c-9.881,0-18.445,5.534-22.793,13.702c-1.581-0.527-3.426-0.791-5.138-0.791c-9.486,0-17.128,7.642-17.128,17.128 c0,1.186,0.132,2.372,0.395,3.426C6.719,34.783,0,42.424,0,51.515C0,61.66,8.169,69.829,18.314,69.829h63.373 C91.831,69.829,100,61.66,100,51.515C99.868,42.556,93.281,35.046,84.717,33.597z" fill="#bddeff" transform="scale(1)" style="transform:matrix(1, 0, 0, 1, 0, 0);animation-play-state:paused" ></path></g>
<g transform="matrix(1,0,0,1,-47.71701431274414,443.1400146484375)" style="transform:matrix(1, 0, 0, 1, -47.717, 443.14);animation-play-state:paused" ><path d="M84.717,33.597c0.791-2.503,1.186-5.138,1.186-7.773C85.903,11.594,74.308,0,60.079,0 c-9.881,0-18.445,5.534-22.793,13.702c-1.581-0.527-3.426-0.791-5.138-0.791c-9.486,0-17.128,7.642-17.128,17.128 c0,1.186,0.132,2.372,0.395,3.426C6.719,34.783,0,42.424,0,51.515C0,61.66,8.169,69.829,18.314,69.829h63.373 C91.831,69.829,100,61.66,100,51.515C99.868,42.556,93.281,35.046,84.717,33.597z" fill="#bddeff" transform="scale(1)" style="transform:matrix(1, 0, 0, 1, 0, 0);animation-play-state:paused" ></path></g>
<g transform="matrix(1,0,0,1,836.5454711914062,387.9856262207031)" style="transform:matrix(1, 0, 0, 1, 836.545, 387.986);animation-play-state:paused" ><path d="M84.717,33.597c0.791-2.503,1.186-5.138,1.186-7.773C85.903,11.594,74.308,0,60.079,0 c-9.881,0-18.445,5.534-22.793,13.702c-1.581-0.527-3.426-0.791-5.138-0.791c-9.486,0-17.128,7.642-17.128,17.128 c0,1.186,0.132,2.372,0.395,3.426C6.719,34.783,0,42.424,0,51.515C0,61.66,8.169,69.829,18.314,69.829h63.373 C91.831,69.829,100,61.66,100,51.515C99.868,42.556,93.281,35.046,84.717,33.597z" fill="#bddeff" transform="scale(1)" style="transform:matrix(1, 0, 0, 1, 0, 0);animation-play-state:paused" ></path></g>
<g transform="matrix(1,0,0,1,615.2485961914062,499.7822570800781)" style="transform:matrix(1, 0, 0, 1, 615.249, 499.782);animation-play-state:paused" ><path d="M84.717,33.597c0.791-2.503,1.186-5.138,1.186-7.773C85.903,11.594,74.308,0,60.079,0 c-9.881,0-18.445,5.534-22.793,13.702c-1.581-0.527-3.426-0.791-5.138-0.791c-9.486,0-17.128,7.642-17.128,17.128 c0,1.186,0.132,2.372,0.395,3.426C6.719,34.783,0,42.424,0,51.515C0,61.66,8.169,69.829,18.314,69.829h63.373 C91.831,69.829,100,61.66,100,51.515C99.868,42.556,93.281,35.046,84.717,33.597z" fill="#bddeff" transform="scale(1)" style="transform:matrix(1, 0, 0, 1, 0, 0);animation-play-state:paused" ></path></g>
<g transform="matrix(1,0,0,1,960.408447265625,237.38145446777344)" style="transform:matrix(1, 0, 0, 1, 960.408, 237.381);animation-play-state:paused" ><path d="M84.717,33.597c0.791-2.503,1.186-5.138,1.186-7.773C85.903,11.594,74.308,0,60.079,0 c-9.881,0-18.445,5.534-22.793,13.702c-1.581-0.527-3.426-0.791-5.138-0.791c-9.486,0-17.128,7.642-17.128,17.128 c0,1.186,0.132,2.372,0.395,3.426C6.719,34.783,0,42.424,0,51.515C0,61.66,8.169,69.829,18.314,69.829h63.373 C91.831,69.829,100,61.66,100,51.515C99.868,42.556,93.281,35.046,84.717,33.597z" fill="#bddeff" transform="scale(1)" style="transform:matrix(1, 0, 0, 1, 0, 0);animation-play-state:paused" ></path></g>
<g transform="matrix(1,0,0,1,896.39697265625,210.69480895996094)" style="transform:matrix(1, 0, 0, 1, 896.397, 210.695);animation-play-state:paused" ><path d="M84.717,33.597c0.791-2.503,1.186-5.138,1.186-7.773C85.903,11.594,74.308,0,60.079,0 c-9.881,0-18.445,5.534-22.793,13.702c-1.581-0.527-3.426-0.791-5.138-0.791c-9.486,0-17.128,7.642-17.128,17.128 c0,1.186,0.132,2.372,0.395,3.426C6.719,34.783,0,42.424,0,51.515C0,61.66,8.169,69.829,18.314,69.829h63.373 C91.831,69.829,100,61.66,100,51.515C99.868,42.556,93.281,35.046,84.717,33.597z" fill="#bddeff" transform="scale(1)" style="transform:matrix(1, 0, 0, 1, 0, 0);animation-play-state:paused" ></path></g>
<g transform="matrix(1,0,0,1,844.345947265625,443.18255615234375)" style="transform:matrix(1, 0, 0, 1, 844.346, 443.183);animation-play-state:paused" ><path d="M84.717,33.597c0.791-2.503,1.186-5.138,1.186-7.773C85.903,11.594,74.308,0,60.079,0 c-9.881,0-18.445,5.534-22.793,13.702c-1.581-0.527-3.426-0.791-5.138-0.791c-9.486,0-17.128,7.642-17.128,17.128 c0,1.186,0.132,2.372,0.395,3.426C6.719,34.783,0,42.424,0,51.515C0,61.66,8.169,69.829,18.314,69.829h63.373 C91.831,69.829,100,61.66,100,51.515C99.868,42.556,93.281,35.046,84.717,33.597z" fill="#bddeff" transform="scale(1)" style="transform:matrix(1, 0, 0, 1, 0, 0);animation-play-state:paused" ></path></g>
<g transform="matrix(1,0,0,1,385.8487548828125,425.9861755371094)" style="transform:matrix(1, 0, 0, 1, 385.849, 425.986);animation-play-state:paused" ><path d="M84.717,33.597c0.791-2.503,1.186-5.138,1.186-7.773C85.903,11.594,74.308,0,60.079,0 c-9.881,0-18.445,5.534-22.793,13.702c-1.581-0.527-3.426-0.791-5.138-0.791c-9.486,0-17.128,7.642-17.128,17.128 c0,1.186,0.132,2.372,0.395,3.426C6.719,34.783,0,42.424,0,51.515C0,61.66,8.169,69.829,18.314,69.829h63.373 C91.831,69.829,100,61.66,100,51.515C99.868,42.556,93.281,35.046,84.717,33.597z" fill="#bddeff" transform="scale(1)" style="transform:matrix(1, 0, 0, 1, 0, 0);animation-play-state:paused" ></path></g>
<g transform="matrix(1,0,0,1,785.8734130859375,522.5836181640625)" style="transform:matrix(1, 0, 0, 1, 785.873, 522.584);animation-play-state:paused" ><path d="M84.717,33.597c0.791-2.503,1.186-5.138,1.186-7.773C85.903,11.594,74.308,0,60.079,0 c-9.881,0-18.445,5.534-22.793,13.702c-1.581-0.527-3.426-0.791-5.138-0.791c-9.486,0-17.128,7.642-17.128,17.128 c0,1.186,0.132,2.372,0.395,3.426C6.719,34.783,0,42.424,0,51.515C0,61.66,8.169,69.829,18.314,69.829h63.373 C91.831,69.829,100,61.66,100,51.515C99.868,42.556,93.281,35.046,84.717,33.597z" fill="#bddeff" transform="scale(1)" style="transform:matrix(1, 0, 0, 1, 0, 0);animation-play-state:paused" ></path></g></g></svg>